<svg id="Layer_1" enable-background="new 0 0 512 512" height="512" viewBox="0 0 512 512" width="512" xmlns="http://www.w3.org/2000/svg"><g><path d="m272.984 376c-4.142 0-7.5 3.357-7.5 7.5v30.793c0 4.143 3.358 7.5 7.5 7.5s7.5-3.357 7.5-7.5v-30.793c0-4.143-3.358-7.5-7.5-7.5z"/><path d="m438.809 376c-4.142 0-7.5 3.357-7.5 7.5v20.793c0 4.143 3.358 7.5 7.5 7.5s7.5-3.357 7.5-7.5v-20.793c0-4.143-3.358-7.5-7.5-7.5z"/><path d="m197.132 376c-4.142 0-7.5 3.357-7.5 7.5v30.793c0 4.143 3.358 7.5 7.5 7.5s7.5-3.357 7.5-7.5v-30.793c0-4.143-3.358-7.5-7.5-7.5z"/><path d="m45.426 376c-4.142 0-7.5 3.357-7.5 7.5v30.793c0 4.143 3.358 7.5 7.5 7.5s7.5-3.357 7.5-7.5v-30.793c0-4.143-3.358-7.5-7.5-7.5z"/><path d="m121.279 421.793c4.142 0 7.5-3.357 7.5-7.5v-30.793c0-4.143-3.358-7.5-7.5-7.5s-7.5 3.357-7.5 7.5v30.793c0 4.143 3.358 7.5 7.5 7.5z"/><path d="m504.5 297.847c4.142 0 7.5-3.357 7.5-7.5v-25.034c0-23.255-18.92-42.175-42.175-42.175h-5.519v-22.5c0-4.143-3.358-7.5-7.5-7.5h-10.497v-45.682c0-49.854-40.559-90.412-90.412-90.412-47.328 0-86.279 36.554-90.104 82.912h-23.234v-37.5c0-4.143-3.358-7.5-7.5-7.5h-75.853c-4.142 0-7.5 3.357-7.5 7.5v37.5h-60.853v-37.5c0-4.143-3.358-7.5-7.5-7.5h-75.853c-4.142 0-7.5 3.357-7.5 7.5v345c0 4.143 3.358 7.5 7.5 7.5h303.411c4.142 0 7.5-3.357 7.5-7.5v-300c0-4.143-3.358-7.5-7.5-7.5h-30.056c3.776-38.074 35.99-67.912 75.042-67.912 41.583 0 75.412 33.83 75.412 75.412v45.682h-10.497c-4.142 0-7.5 3.357-7.5 7.5v22.5h-5.52c-23.255 0-42.175 18.92-42.175 42.175v116.452c0 40.357 32.833 73.191 73.191 73.191s73.192-32.834 73.192-73.191v-56.379c0-4.143-3.358-7.5-7.5-7.5s-7.5 3.357-7.5 7.5v56.379c0 32.087-26.104 58.191-58.191 58.191s-58.191-26.104-58.191-58.191v-116.452c0-14.984 12.19-27.175 27.175-27.175h23.517v71.744c0 4.143 3.358 7.5 7.5 7.5s7.5-3.357 7.5-7.5v-71.744h23.516c14.984 0 27.175 12.19 27.175 27.175v25.034c-.001 4.142 3.357 7.5 7.499 7.5zm-352.794-69.375h-60.853v-14.293h60.853zm-75.853-44.223h-60.853v-14.293h60.853zm90.853-14.293h60.853v14.293h-60.853zm75.852 44.223h60.853v14.293h-60.853zm-75.852-104.223h60.853v45h-60.853zm-15 45v44.223h-60.853v-44.223zm-75.853-45v45h-60.853v-45zm-60.853 89.293h60.853v65.683c0 4.143 3.358 7.5 7.5 7.5s7.5-3.357 7.5-7.5v-21.46h60.853v196.484h-60.853v-140.074c0-4.143-3.358-7.5-7.5-7.5s-7.5 3.357-7.5 7.5v140.074h-60.853zm227.558 240.707v-61.865c0-4.143-3.358-7.5-7.5-7.5s-7.5 3.357-7.5 7.5v61.865h-60.853v-240.707h60.853v144.419c0 4.143 3.358 7.5 7.5 7.5s7.5-3.357 7.5-7.5v-100.196h60.853v196.484zm60.853-240.777h-60.853v-44.223h60.853zm124.901 23.959v-15h20.994v15z"/></g></svg>